Coordinates
version=1
nRows=7
nColumns=40
inDegrees=yes

Units are S.I. units (second, meters, Newtons, ...)
Angles are in degrees.

endheader
time	pelvis_tilt	pelvis_list	pelvis_rotation	pelvis_tx	pelvis_ty	pelvis_tz	hip_flexion_r	hip_adduction_r	hip_rotation_r	knee_angle_r	knee_angle_r_beta	ankle_angle_r	subtalar_angle_r	mtp_angle_r	hip_flexion_l	hip_adduction_l	hip_rotation_l	knee_angle_l	knee_angle_l_beta	ankle_angle_l	subtalar_angle_l	mtp_angle_l	lumbar_extension	lumbar_bending	lumbar_rotation	arm_flex_r	arm_add_r	arm_rot_r	elbow_flex_r	pro_sup_r	wrist_flex_r	wrist_dev_r	arm_flex_l	arm_add_l	arm_rot_l	elbow_flex_l	pro_sup_l	wrist_flex_l	wrist_dev_l
     29.42000000	     -1.82053944	     -1.09167894	      7.16402908	      0.81907074	      0.91202062	      0.51050861	     13.82064158	      2.10081307	    -10.57290043	     31.51809892	     31.51809892	     20.56433288	    -12.80944601	      0.48000194	     32.79310786	    -11.34209226	      0.88096638	     48.64881310	     48.64881310	     14.27784897	    -19.29492837	     19.44769320	    -12.03465781	      7.28179168	      2.96607313	     28.49564683	    -18.51196422	    -11.70942552	     56.58491555	     44.67259630	      0.00000000	      0.00000000	    -13.52888766	    -10.97041036	     19.77080307	     32.14005980	     44.66001425	      0.00000000	      0.00000000
     29.43507143	     -1.98198628	     -0.92275553	      7.73574437	      0.81655847	      0.91321818	      0.50960299	     13.43488617	      1.85617711	    -11.01625205	     30.86548419	     30.86548419	     20.44820564	    -12.73749997	      0.59503698	     33.02665751	    -10.54957070	      1.37948906	     46.41884313	     46.41884313	     13.76517856	    -19.15837503	     18.95791791	    -11.89436541	      7.04987659	      2.77969378	     30.28827027	    -18.23419844	    -11.34166368	     58.15720091	     44.62624353	      0.00000000	      0.00000000	    -13.65499303	    -11.03343848	     19.99045337	     31.94345349	     44.64200560	      0.00000000	      0.00000000
     29.45014286	     -2.19903384	     -0.77631330	      8.32845488	      0.81406703	      0.91430992	      0.50863036	     13.07517885	      1.62004178	    -11.51099427	     30.16468288	     30.16468288	     20.33161371	    -12.62511813	      0.63627895	     33.24599044	     -9.80670339	      1.79490697	     44.05725417	     44.05725417	     12.92826472	    -18.95748362	     17.79933648	    -11.66754239	      6.86943430	      2.71846459	     32.01931157	    -18.27773297	    -10.66013284	     59.99498450	     44.56403648	      0.00000000	      0.00000000	    -13.66289468	    -11.06357624	     20.23560996	     31.78886420	     44.62622283	      0.00000000	      0.00000000
     29.46521429	     -2.42283798	     -0.68225964	      8.87208883	      0.81163027	      0.91542574	      0.50775076	     12.71924396	      1.45500831	    -12.00185410	     29.42918006	     29.42918006	     20.08799105	    -12.51862830	      0.41895406	     33.26580002	     -9.19930441	      2.10165820	     41.36235045	     41.36235045	     11.16551926	    -18.74347562	     14.38132411	    -11.45441518	      6.70104284	      3.02787804	     33.23404505	    -19.02421118	     -9.10432659	     62.49159613	     44.49060791	      0.00000000	      0.00000000	    -13.50895536	    -11.19579160	     20.79631620	     31.62865711	     44.60476977	      0.00000000	      0.00000000
     29.48028571	     -2.62771872	     -0.58142803	      9.39548737	      0.80930197	      0.91667020	      0.50682103	     12.28130634	      1.28424334	    -12.52900314	     28.59756823	     28.59756823	     19.88628109	    -12.25811132	      0.35630481	     33.25658962	     -8.56558574	      2.49803002	     38.81267324	     38.81267324	     10.21910494	    -18.36117114	     13.20494038	    -11.24887791	      6.52949524	      3.02078141	     34.98268414	    -19.03958024	     -8.63995584	     64.08334560	     44.47478961	      0.00000000	      0.00000000	    -13.52888718	    -11.28050582	     21.23660630	     31.47704459	     44.58169187	      0.00000000	      0.00000000
     29.49535714	     -2.81871767	     -0.48448643	      9.85918000	      0.80705550	      0.91805888	      0.50593706	     11.80252705	      1.16255905	    -12.94159396	     27.70530516	     27.70530516	     19.68615151	    -12.06106514	      0.51129026	     33.18426770	     -7.99664852	      2.85401310	     36.35471738	     36.35471738	      9.71054345	    -17.71637136	     13.18719166	    -11.08132972	      6.33614435	      3.20344372	     36.75846004	    -19.17436452	     -8.49044003	     65.11543454	     44.45350983	      0.00000000	      0.00000000	    -13.48340922	    -11.38152655	     21.34900681	     31.44080931	     44.57568489	      0.00000000	      0.00000000
     29.51042857	     -3.00899140	     -0.46247131	     10.28161264	      0.80498980	      0.91929831	      0.50505694	     11.28237366	      1.08257793	    -13.54935091	     26.73330026	     26.73330026	     19.36476239	    -11.56228570	      0.06579113	     32.98589284	     -7.61148161	      3.05085536	     33.76104848	     33.76104848	      8.18964353	    -17.15851566	     10.26376594	    -10.94206774	      6.23167950	      3.38163650	     38.27726585	    -19.73166125	     -7.24037554	     67.10660046	     44.43473313	      0.00000000	      0.00000000	    -13.46259166	    -11.54244260	     22.04153100	     31.46805660	     44.54729278	      0.00000000	      0.00000000
